<?xml version="1.0" encoding="UTF-8" standalone="no"?>
<!DOCTYPE svg PUBLIC "-//W3C//DTD SVG 1.1//EN"
 "http://www.w3.org/Graphics/SVG/1.1/DTD/svg11.dtd">
<!-- Generated by graphviz version 2.43.0 (0)
 -->
<!-- Title: structs Pages: 1 -->
<svg width="693pt" height="1168pt"
 viewBox="0.00 0.00 693.00 1167.50" xmlns="http://www.w3.org/2000/svg" xmlns:xlink="http://www.w3.org/1999/xlink">
<g id="graph0" class="graph" transform="scale(1 1) rotate(0) translate(4 1163.5)">
<title>structs</title>
<polygon fill="white" stroke="transparent" points="-4,4 -4,-1163.5 689,-1163.5 689,4 -4,4"/>
<!-- collection_metadata -->
<g id="node1" class="node">
<title>collection_metadata</title>
<polygon fill="none" stroke="black" points="32.5,-131 32.5,-152 196.5,-152 196.5,-131 32.5,-131"/>
<text text-anchor="start" x="35.5" y="-138.8" font-family="Times,serif" font-weight="bold" font-size="14.00">collection_metadata</text>
<polygon fill="none" stroke="black" points="32.5,-110 32.5,-131 78.5,-131 78.5,-110 32.5,-110"/>
<text text-anchor="start" x="46.5" y="-116.8" font-family="Times,serif" font-size="14.00">🔑</text>
<polygon fill="none" stroke="black" points="78.5,-110 78.5,-131 196.5,-131 196.5,-110 78.5,-110"/>
<text text-anchor="start" x="93" y="-116.8" font-family="Times,serif" font-size="14.00">collection_id</text>
<polygon fill="none" stroke="black" points="32.5,-89 32.5,-110 78.5,-110 78.5,-89 32.5,-89"/>
<text text-anchor="start" x="46.5" y="-95.8" font-family="Times,serif" font-size="14.00">🔑</text>
<polygon fill="none" stroke="black" points="78.5,-89 78.5,-110 196.5,-110 196.5,-89 78.5,-89"/>
<text text-anchor="start" x="125" y="-95.8" font-family="Times,serif" font-size="14.00">key</text>
<polygon fill="none" stroke="black" points="32.5,-68 32.5,-89 78.5,-89 78.5,-68 32.5,-68"/>
<text text-anchor="start" x="53" y="-74.8" font-family="Times,serif" font-size="14.00"> </text>
<polygon fill="none" stroke="black" points="78.5,-68 78.5,-89 196.5,-89 196.5,-68 78.5,-68"/>
<text text-anchor="start" x="104.5" y="-74.8" font-family="Times,serif" font-size="14.00">str_value</text>
<polygon fill="none" stroke="black" points="32.5,-47 32.5,-68 78.5,-68 78.5,-47 32.5,-47"/>
<text text-anchor="start" x="53" y="-53.8" font-family="Times,serif" font-size="14.00"> </text>
<polygon fill="none" stroke="black" points="78.5,-47 78.5,-68 196.5,-68 196.5,-47 78.5,-47"/>
<text text-anchor="start" x="105" y="-53.8" font-family="Times,serif" font-size="14.00">int_value</text>
<polygon fill="none" stroke="black" points="32.5,-26 32.5,-47 78.5,-47 78.5,-26 32.5,-26"/>
<text text-anchor="start" x="53" y="-32.8" font-family="Times,serif" font-size="14.00"> </text>
<polygon fill="none" stroke="black" points="78.5,-26 78.5,-47 196.5,-47 196.5,-26 78.5,-26"/>
<text text-anchor="start" x="99" y="-32.8" font-family="Times,serif" font-size="14.00">float_value</text>
<polygon fill="none" stroke="black" points="32.5,-5 32.5,-26 78.5,-26 78.5,-5 32.5,-5"/>
<text text-anchor="start" x="53" y="-11.8" font-family="Times,serif" font-size="14.00"> </text>
<polygon fill="none" stroke="black" points="78.5,-5 78.5,-26 196.5,-26 196.5,-5 78.5,-5"/>
<text text-anchor="start" x="99.5" y="-11.8" font-family="Times,serif" font-size="14.00">bool_value</text>
</g>
<!-- collections -->
<g id="node2" class="node">
<title>collections</title>
<polygon fill="none" stroke="black" points="273,-131 273,-152 409,-152 409,-131 273,-131"/>
<text text-anchor="start" x="298.5" y="-138.8" font-family="Times,serif" font-weight="bold" font-size="14.00">collections</text>
<polygon fill="none" stroke="black" points="273,-110 273,-131 297,-131 297,-110 273,-110"/>
<text text-anchor="start" x="276" y="-116.8" font-family="Times,serif" font-size="14.00">🔑</text>
<polygon fill="none" stroke="black" points="297,-110 297,-131 409,-131 409,-110 297,-110"/>
<text text-anchor="start" x="346" y="-116.8" font-family="Times,serif" font-size="14.00">id</text>
<polygon fill="none" stroke="black" points="273,-89 273,-110 297,-110 297,-89 273,-89"/>
<text text-anchor="start" x="282.5" y="-95.8" font-family="Times,serif" font-size="14.00"> </text>
<polygon fill="none" stroke="black" points="297,-89 297,-110 409,-110 409,-89 297,-89"/>
<text text-anchor="start" x="333" y="-95.8" font-family="Times,serif" font-size="14.00">name</text>
<polygon fill="none" stroke="black" points="273,-68 273,-89 297,-89 297,-68 273,-68"/>
<text text-anchor="start" x="282.5" y="-74.8" font-family="Times,serif" font-size="14.00"> </text>
<polygon fill="none" stroke="black" points="297,-68 297,-89 409,-89 409,-68 297,-68"/>
<text text-anchor="start" x="316" y="-74.8" font-family="Times,serif" font-size="14.00">dimension</text>
<polygon fill="none" stroke="black" points="273,-47 273,-68 297,-68 297,-47 273,-47"/>
<text text-anchor="start" x="282.5" y="-53.8" font-family="Times,serif" font-size="14.00"> </text>
<polygon fill="none" stroke="black" points="297,-47 297,-68 409,-68 409,-47 297,-47"/>
<text text-anchor="start" x="310.5" y="-53.8" font-family="Times,serif" font-size="14.00">database_id</text>
<polygon fill="none" stroke="black" points="273,-26 273,-47 297,-47 297,-26 273,-26"/>
<text text-anchor="start" x="282.5" y="-32.8" font-family="Times,serif" font-size="14.00"> </text>
<polygon fill="none" stroke="black" points="297,-26 297,-47 409,-47 409,-26 297,-26"/>
<text text-anchor="start" x="300" y="-32.8" font-family="Times,serif" font-size="14.00">config_json_str</text>
</g>
<!-- collection_metadata&#45;&gt;collections -->
<g id="edge2" class="edge">
<title>collection_metadata:e&#45;&gt;collections:w</title>
<path fill="none" stroke="black" d="M197.5,-121C226.99,-121 236.78,-121 261.96,-121"/>
<polygon fill="black" stroke="black" points="262,-124.5 272,-121 262,-117.5 262,-124.5"/>
</g>
<!-- databases -->
<g id="node3" class="node">
<title>databases</title>
<polygon fill="none" stroke="black" points="461.5,-67 461.5,-88 558.5,-88 558.5,-67 461.5,-67"/>
<text text-anchor="start" x="470.5" y="-74.8" font-family="Times,serif" font-weight="bold" font-size="14.00">databases</text>
<polygon fill="none" stroke="black" points="461.5,-46 461.5,-67 485.5,-67 485.5,-46 461.5,-46"/>
<text text-anchor="start" x="464.5" y="-52.8" font-family="Times,serif" font-size="14.00">🔑</text>
<polygon fill="none" stroke="black" points="485.5,-46 485.5,-67 558.5,-67 558.5,-46 485.5,-46"/>
<text text-anchor="start" x="515" y="-52.8" font-family="Times,serif" font-size="14.00">id</text>
<polygon fill="none" stroke="black" points="461.5,-25 461.5,-46 485.5,-46 485.5,-25 461.5,-25"/>
<text text-anchor="start" x="471" y="-31.8" font-family="Times,serif" font-size="14.00"> </text>
<polygon fill="none" stroke="black" points="485.5,-25 485.5,-46 558.5,-46 558.5,-25 485.5,-25"/>
<text text-anchor="start" x="502" y="-31.8" font-family="Times,serif" font-size="14.00">name</text>
<polygon fill="none" stroke="black" points="461.5,-4 461.5,-25 485.5,-25 485.5,-4 461.5,-4"/>
<text text-anchor="start" x="471" y="-10.8" font-family="Times,serif" font-size="14.00"> </text>
<polygon fill="none" stroke="black" points="485.5,-4 485.5,-25 558.5,-25 558.5,-4 485.5,-4"/>
<text text-anchor="start" x="488.5" y="-10.8" font-family="Times,serif" font-size="14.00">tenant_id</text>
</g>
<!-- collections&#45;&gt;databases -->
<g id="edge5" class="edge">
<title>collections:e&#45;&gt;databases:w</title>
<path fill="none" stroke="black" d="M410,-57C428.59,-57 435.63,-57 450.25,-57"/>
<polygon fill="black" stroke="black" points="450.5,-60.5 460.5,-57 450.5,-53.5 450.5,-60.5"/>
</g>
<!-- tenants -->
<g id="node13" class="node">
<title>tenants</title>
<polygon fill="none" stroke="black" points="610.5,-25 610.5,-46 677.5,-46 677.5,-25 610.5,-25"/>
<text text-anchor="start" x="613.5" y="-32.8" font-family="Times,serif" font-weight="bold" font-size="14.00">tenants</text>
<polygon fill="none" stroke="black" points="610.5,-4 610.5,-25 645.5,-25 645.5,-4 610.5,-4"/>
<text text-anchor="start" x="619" y="-10.8" font-family="Times,serif" font-size="14.00">🔑</text>
<polygon fill="none" stroke="black" points="645.5,-4 645.5,-25 677.5,-25 677.5,-4 645.5,-4"/>
<text text-anchor="start" x="654.5" y="-10.8" font-family="Times,serif" font-size="14.00">id</text>
</g>
<!-- databases&#45;&gt;tenants -->
<g id="edge4" class="edge">
<title>databases:e&#45;&gt;tenants:w</title>
<path fill="none" stroke="black" d="M559.5,-14C577.9,-14 584.88,-14 599.35,-14"/>
<polygon fill="black" stroke="black" points="599.5,-17.5 609.5,-14 599.5,-10.5 599.5,-17.5"/>
</g>
<!-- embedding_metadata -->
<g id="node4" class="node">
<title>embedding_metadata</title>
<polygon fill="none" stroke="black" points="27.5,-304 27.5,-325 202.5,-325 202.5,-304 27.5,-304"/>
<text text-anchor="start" x="30.5" y="-311.8" font-family="Times,serif" font-weight="bold" font-size="14.00">embedding_metadata</text>
<polygon fill="none" stroke="black" points="27.5,-283 27.5,-304 79.5,-304 79.5,-283 27.5,-283"/>
<text text-anchor="start" x="44.5" y="-289.8" font-family="Times,serif" font-size="14.00">🔑</text>
<polygon fill="none" stroke="black" points="79.5,-283 79.5,-304 202.5,-304 202.5,-283 79.5,-283"/>
<text text-anchor="start" x="134" y="-289.8" font-family="Times,serif" font-size="14.00">id</text>
<polygon fill="none" stroke="black" points="27.5,-262 27.5,-283 79.5,-283 79.5,-262 27.5,-262"/>
<text text-anchor="start" x="44.5" y="-268.8" font-family="Times,serif" font-size="14.00">🔑</text>
<polygon fill="none" stroke="black" points="79.5,-262 79.5,-283 202.5,-283 202.5,-262 79.5,-262"/>
<text text-anchor="start" x="128.5" y="-268.8" font-family="Times,serif" font-size="14.00">key</text>
<polygon fill="none" stroke="black" points="27.5,-241 27.5,-262 79.5,-262 79.5,-241 27.5,-241"/>
<text text-anchor="start" x="51" y="-247.8" font-family="Times,serif" font-size="14.00"> </text>
<polygon fill="none" stroke="black" points="79.5,-241 79.5,-262 202.5,-262 202.5,-241 79.5,-241"/>
<text text-anchor="start" x="97" y="-247.8" font-family="Times,serif" font-size="14.00">string_value</text>
<polygon fill="none" stroke="black" points="27.5,-220 27.5,-241 79.5,-241 79.5,-220 27.5,-220"/>
<text text-anchor="start" x="51" y="-226.8" font-family="Times,serif" font-size="14.00"> </text>
<polygon fill="none" stroke="black" points="79.5,-220 79.5,-241 202.5,-241 202.5,-220 79.5,-220"/>
<text text-anchor="start" x="108.5" y="-226.8" font-family="Times,serif" font-size="14.00">int_value</text>
<polygon fill="none" stroke="black" points="27.5,-199 27.5,-220 79.5,-220 79.5,-199 27.5,-199"/>
<text text-anchor="start" x="51" y="-205.8" font-family="Times,serif" font-size="14.00"> </text>
<polygon fill="none" stroke="black" points="79.5,-199 79.5,-220 202.5,-220 202.5,-199 79.5,-199"/>
<text text-anchor="start" x="102.5" y="-205.8" font-family="Times,serif" font-size="14.00">float_value</text>
<polygon fill="none" stroke="black" points="27.5,-178 27.5,-199 79.5,-199 79.5,-178 27.5,-178"/>
<text text-anchor="start" x="51" y="-184.8" font-family="Times,serif" font-size="14.00"> </text>
<polygon fill="none" stroke="black" points="79.5,-178 79.5,-199 202.5,-199 202.5,-178 79.5,-178"/>
<text text-anchor="start" x="103" y="-184.8" font-family="Times,serif" font-size="14.00">bool_value</text>
</g>
<!-- embeddings -->
<g id="node5" class="node">
<title>embeddings</title>
<polygon fill="none" stroke="black" points="276,-304 276,-325 406,-325 406,-304 276,-304"/>
<text text-anchor="start" x="292.5" y="-311.8" font-family="Times,serif" font-weight="bold" font-size="14.00">embeddings</text>
<polygon fill="none" stroke="black" points="276,-283 276,-304 300,-304 300,-283 276,-283"/>
<text text-anchor="start" x="279" y="-289.8" font-family="Times,serif" font-size="14.00">🔑</text>
<polygon fill="none" stroke="black" points="300,-283 300,-304 406,-304 406,-283 300,-283"/>
<text text-anchor="start" x="346" y="-289.8" font-family="Times,serif" font-size="14.00">id</text>
<polygon fill="none" stroke="black" points="276,-262 276,-283 300,-283 300,-262 276,-262"/>
<text text-anchor="start" x="285.5" y="-268.8" font-family="Times,serif" font-size="14.00"> </text>
<polygon fill="none" stroke="black" points="300,-262 300,-283 406,-283 406,-262 300,-262"/>
<text text-anchor="start" x="312" y="-268.8" font-family="Times,serif" font-size="14.00">segment_id</text>
<polygon fill="none" stroke="black" points="276,-241 276,-262 300,-262 300,-241 276,-241"/>
<text text-anchor="start" x="285.5" y="-247.8" font-family="Times,serif" font-size="14.00"> </text>
<polygon fill="none" stroke="black" points="300,-241 300,-262 406,-262 406,-241 300,-241"/>
<text text-anchor="start" x="303" y="-247.8" font-family="Times,serif" font-size="14.00">embedding_id</text>
<polygon fill="none" stroke="black" points="276,-220 276,-241 300,-241 300,-220 276,-220"/>
<text text-anchor="start" x="285.5" y="-226.8" font-family="Times,serif" font-size="14.00"> </text>
<polygon fill="none" stroke="black" points="300,-220 300,-241 406,-241 406,-220 300,-220"/>
<text text-anchor="start" x="330" y="-226.8" font-family="Times,serif" font-size="14.00">seq_id</text>
<polygon fill="none" stroke="black" points="276,-199 276,-220 300,-220 300,-199 276,-199"/>
<text text-anchor="start" x="285.5" y="-205.8" font-family="Times,serif" font-size="14.00"> </text>
<polygon fill="none" stroke="black" points="300,-199 300,-220 406,-220 406,-199 300,-199"/>
<text text-anchor="start" x="315" y="-205.8" font-family="Times,serif" font-size="14.00">created_at</text>
</g>
<!-- embedding_metadata&#45;&gt;embeddings -->
<g id="edge1" class="edge">
<title>embedding_metadata:e&#45;&gt;embeddings:w</title>
<path fill="none" stroke="black" d="M203.5,-294C231.55,-294 241.03,-294 264.73,-294"/>
<polygon fill="black" stroke="black" points="265,-297.5 275,-294 265,-290.5 265,-297.5"/>
</g>
<!-- embeddings_queue -->
<g id="node6" class="node">
<title>embeddings_queue</title>
<polygon fill="none" stroke="black" points="35.5,-519 35.5,-540 193.5,-540 193.5,-519 35.5,-519"/>
<text text-anchor="start" x="38.5" y="-526.8" font-family="Times,serif" font-weight="bold" font-size="14.00">embeddings_queue</text>
<polygon fill="none" stroke="black" points="35.5,-498 35.5,-519 85.5,-519 85.5,-498 35.5,-498"/>
<text text-anchor="start" x="51.5" y="-504.8" font-family="Times,serif" font-size="14.00">🔑</text>
<polygon fill="none" stroke="black" points="85.5,-498 85.5,-519 193.5,-519 193.5,-498 85.5,-498"/>
<text text-anchor="start" x="116.5" y="-504.8" font-family="Times,serif" font-size="14.00">seq_id</text>
<polygon fill="none" stroke="black" points="35.5,-477 35.5,-498 85.5,-498 85.5,-477 35.5,-477"/>
<text text-anchor="start" x="58" y="-483.8" font-family="Times,serif" font-size="14.00"> </text>
<polygon fill="none" stroke="black" points="85.5,-477 85.5,-498 193.5,-498 193.5,-477 85.5,-477"/>
<text text-anchor="start" x="101.5" y="-483.8" font-family="Times,serif" font-size="14.00">created_at</text>
<polygon fill="none" stroke="black" points="35.5,-456 35.5,-477 85.5,-477 85.5,-456 35.5,-456"/>
<text text-anchor="start" x="58" y="-462.8" font-family="Times,serif" font-size="14.00"> </text>
<polygon fill="none" stroke="black" points="85.5,-456 85.5,-477 193.5,-477 193.5,-456 85.5,-456"/>
<text text-anchor="start" x="105" y="-462.8" font-family="Times,serif" font-size="14.00">operation</text>
<polygon fill="none" stroke="black" points="35.5,-435 35.5,-456 85.5,-456 85.5,-435 35.5,-435"/>
<text text-anchor="start" x="58" y="-441.8" font-family="Times,serif" font-size="14.00"> </text>
<polygon fill="none" stroke="black" points="85.5,-435 85.5,-456 193.5,-456 193.5,-435 85.5,-435"/>
<text text-anchor="start" x="121.5" y="-441.8" font-family="Times,serif" font-size="14.00">topic</text>
<polygon fill="none" stroke="black" points="35.5,-414 35.5,-435 85.5,-435 85.5,-414 35.5,-414"/>
<text text-anchor="start" x="58" y="-420.8" font-family="Times,serif" font-size="14.00"> </text>
<polygon fill="none" stroke="black" points="85.5,-414 85.5,-435 193.5,-435 193.5,-414 85.5,-414"/>
<text text-anchor="start" x="132.5" y="-420.8" font-family="Times,serif" font-size="14.00">id</text>
<polygon fill="none" stroke="black" points="35.5,-393 35.5,-414 85.5,-414 85.5,-393 35.5,-393"/>
<text text-anchor="start" x="58" y="-399.8" font-family="Times,serif" font-size="14.00"> </text>
<polygon fill="none" stroke="black" points="85.5,-393 85.5,-414 193.5,-414 193.5,-393 85.5,-393"/>
<text text-anchor="start" x="116.5" y="-399.8" font-family="Times,serif" font-size="14.00">vector</text>
<polygon fill="none" stroke="black" points="35.5,-372 35.5,-393 85.5,-393 85.5,-372 35.5,-372"/>
<text text-anchor="start" x="58" y="-378.8" font-family="Times,serif" font-size="14.00"> </text>
<polygon fill="none" stroke="black" points="85.5,-372 85.5,-393 193.5,-393 193.5,-372 85.5,-372"/>
<text text-anchor="start" x="107" y="-378.8" font-family="Times,serif" font-size="14.00">encoding</text>
<polygon fill="none" stroke="black" points="35.5,-351 35.5,-372 85.5,-372 85.5,-351 35.5,-351"/>
<text text-anchor="start" x="58" y="-357.8" font-family="Times,serif" font-size="14.00"> </text>
<polygon fill="none" stroke="black" points="85.5,-351 85.5,-372 193.5,-372 193.5,-351 85.5,-351"/>
<text text-anchor="start" x="105.5" y="-357.8" font-family="Times,serif" font-size="14.00">metadata</text>
</g>
<!-- embeddings_queue_config -->
<g id="node7" class="node">
<title>embeddings_queue_config</title>
<polygon fill="none" stroke="black" points="8.5,-608 8.5,-629 221.5,-629 221.5,-608 8.5,-608"/>
<text text-anchor="start" x="11.5" y="-615.8" font-family="Times,serif" font-weight="bold" font-size="14.00">embeddings_queue_config</text>
<polygon fill="none" stroke="black" points="8.5,-587 8.5,-608 70.5,-608 70.5,-587 8.5,-587"/>
<text text-anchor="start" x="30.5" y="-593.8" font-family="Times,serif" font-size="14.00">🔑</text>
<polygon fill="none" stroke="black" points="70.5,-587 70.5,-608 221.5,-608 221.5,-587 70.5,-587"/>
<text text-anchor="start" x="139" y="-593.8" font-family="Times,serif" font-size="14.00">id</text>
<polygon fill="none" stroke="black" points="8.5,-566 8.5,-587 70.5,-587 70.5,-566 8.5,-566"/>
<text text-anchor="start" x="37" y="-572.8" font-family="Times,serif" font-size="14.00"> </text>
<polygon fill="none" stroke="black" points="70.5,-566 70.5,-587 221.5,-587 221.5,-566 70.5,-566"/>
<text text-anchor="start" x="93" y="-572.8" font-family="Times,serif" font-size="14.00">config_json_str</text>
</g>
<!-- maintenance_log -->
<g id="node8" class="node">
<title>maintenance_log</title>
<polygon fill="none" stroke="black" points="44.5,-719 44.5,-740 184.5,-740 184.5,-719 44.5,-719"/>
<text text-anchor="start" x="47.5" y="-726.8" font-family="Times,serif" font-weight="bold" font-size="14.00">maintenance_log</text>
<polygon fill="none" stroke="black" points="44.5,-698 44.5,-719 84.5,-719 84.5,-698 44.5,-698"/>
<text text-anchor="start" x="55.5" y="-704.8" font-family="Times,serif" font-size="14.00">🔑</text>
<polygon fill="none" stroke="black" points="84.5,-698 84.5,-719 184.5,-719 184.5,-698 84.5,-698"/>
<text text-anchor="start" x="127.5" y="-704.8" font-family="Times,serif" font-size="14.00">id</text>
<polygon fill="none" stroke="black" points="44.5,-677 44.5,-698 84.5,-698 84.5,-677 44.5,-677"/>
<text text-anchor="start" x="62" y="-683.8" font-family="Times,serif" font-size="14.00"> </text>
<polygon fill="none" stroke="black" points="84.5,-677 84.5,-698 184.5,-698 184.5,-677 84.5,-677"/>
<text text-anchor="start" x="96" y="-683.8" font-family="Times,serif" font-size="14.00">timestamp</text>
<polygon fill="none" stroke="black" points="44.5,-656 44.5,-677 84.5,-677 84.5,-656 44.5,-656"/>
<text text-anchor="start" x="62" y="-662.8" font-family="Times,serif" font-size="14.00"> </text>
<polygon fill="none" stroke="black" points="84.5,-656 84.5,-677 184.5,-677 184.5,-656 84.5,-656"/>
<text text-anchor="start" x="100" y="-662.8" font-family="Times,serif" font-size="14.00">operation</text>
</g>
<!-- max_seq_id -->
<g id="node9" class="node">
<title>max_seq_id</title>
<polygon fill="none" stroke="black" points="58.5,-808 58.5,-829 170.5,-829 170.5,-808 58.5,-808"/>
<text text-anchor="start" x="70.5" y="-815.8" font-family="Times,serif" font-weight="bold" font-size="14.00">max_seq_id</text>
<polygon fill="none" stroke="black" points="58.5,-787 58.5,-808 82.5,-808 82.5,-787 58.5,-787"/>
<text text-anchor="start" x="61.5" y="-793.8" font-family="Times,serif" font-size="14.00">🔑</text>
<polygon fill="none" stroke="black" points="82.5,-787 82.5,-808 170.5,-808 170.5,-787 82.5,-787"/>
<text text-anchor="start" x="85.5" y="-793.8" font-family="Times,serif" font-size="14.00">segment_id</text>
<polygon fill="none" stroke="black" points="58.5,-766 58.5,-787 82.5,-787 82.5,-766 58.5,-766"/>
<text text-anchor="start" x="68" y="-772.8" font-family="Times,serif" font-size="14.00"> </text>
<polygon fill="none" stroke="black" points="82.5,-766 82.5,-787 170.5,-787 170.5,-766 82.5,-766"/>
<text text-anchor="start" x="103.5" y="-772.8" font-family="Times,serif" font-size="14.00">seq_id</text>
</g>
<!-- migrations -->
<g id="node10" class="node">
<title>migrations</title>
<polygon fill="none" stroke="black" points="68.5,-961 68.5,-982 161.5,-982 161.5,-961 68.5,-961"/>
<text text-anchor="start" x="71.5" y="-968.8" font-family="Times,serif" font-weight="bold" font-size="14.00">migrations</text>
<polygon fill="none" stroke="black" points="68.5,-940 68.5,-961 93.5,-961 93.5,-940 68.5,-940"/>
<text text-anchor="start" x="72" y="-946.8" font-family="Times,serif" font-size="14.00">🔑</text>
<polygon fill="none" stroke="black" points="93.5,-940 93.5,-961 161.5,-961 161.5,-940 93.5,-940"/>
<text text-anchor="start" x="117" y="-946.8" font-family="Times,serif" font-size="14.00">dir</text>
<polygon fill="none" stroke="black" points="68.5,-919 68.5,-940 93.5,-940 93.5,-919 68.5,-919"/>
<text text-anchor="start" x="72" y="-925.8" font-family="Times,serif" font-size="14.00">🔑</text>
<polygon fill="none" stroke="black" points="93.5,-919 93.5,-940 161.5,-940 161.5,-919 93.5,-919"/>
<text text-anchor="start" x="101" y="-925.8" font-family="Times,serif" font-size="14.00">version</text>
<polygon fill="none" stroke="black" points="68.5,-898 68.5,-919 93.5,-919 93.5,-898 68.5,-898"/>
<text text-anchor="start" x="78.5" y="-904.8" font-family="Times,serif" font-size="14.00"> </text>
<polygon fill="none" stroke="black" points="93.5,-898 93.5,-919 161.5,-919 161.5,-898 93.5,-898"/>
<text text-anchor="start" x="97" y="-904.8" font-family="Times,serif" font-size="14.00">filename</text>
<polygon fill="none" stroke="black" points="68.5,-877 68.5,-898 93.5,-898 93.5,-877 68.5,-877"/>
<text text-anchor="start" x="78.5" y="-883.8" font-family="Times,serif" font-size="14.00"> </text>
<polygon fill="none" stroke="black" points="93.5,-877 93.5,-898 161.5,-898 161.5,-877 93.5,-877"/>
<text text-anchor="start" x="116.5" y="-883.8" font-family="Times,serif" font-size="14.00">sql</text>
<polygon fill="none" stroke="black" points="68.5,-856 68.5,-877 93.5,-877 93.5,-856 68.5,-856"/>
<text text-anchor="start" x="78.5" y="-862.8" font-family="Times,serif" font-size="14.00"> </text>
<polygon fill="none" stroke="black" points="93.5,-856 93.5,-877 161.5,-877 161.5,-856 93.5,-856"/>
<text text-anchor="start" x="110.5" y="-862.8" font-family="Times,serif" font-size="14.00">hash</text>
</g>
<!-- segment_metadata -->
<g id="node11" class="node">
<title>segment_metadata</title>
<polygon fill="none" stroke="black" points="36.5,-1134 36.5,-1155 192.5,-1155 192.5,-1134 36.5,-1134"/>
<text text-anchor="start" x="39.5" y="-1141.8" font-family="Times,serif" font-weight="bold" font-size="14.00">segment_metadata</text>
<polygon fill="none" stroke="black" points="36.5,-1113 36.5,-1134 82.5,-1134 82.5,-1113 36.5,-1113"/>
<text text-anchor="start" x="50.5" y="-1119.8" font-family="Times,serif" font-size="14.00">🔑</text>
<polygon fill="none" stroke="black" points="82.5,-1113 82.5,-1134 192.5,-1134 192.5,-1113 82.5,-1113"/>
<text text-anchor="start" x="96.5" y="-1119.8" font-family="Times,serif" font-size="14.00">segment_id</text>
<polygon fill="none" stroke="black" points="36.5,-1092 36.5,-1113 82.5,-1113 82.5,-1092 36.5,-1092"/>
<text text-anchor="start" x="50.5" y="-1098.8" font-family="Times,serif" font-size="14.00">🔑</text>
<polygon fill="none" stroke="black" points="82.5,-1092 82.5,-1113 192.5,-1113 192.5,-1092 82.5,-1092"/>
<text text-anchor="start" x="125" y="-1098.8" font-family="Times,serif" font-size="14.00">key</text>
<polygon fill="none" stroke="black" points="36.5,-1071 36.5,-1092 82.5,-1092 82.5,-1071 36.5,-1071"/>
<text text-anchor="start" x="57" y="-1077.8" font-family="Times,serif" font-size="14.00"> </text>
<polygon fill="none" stroke="black" points="82.5,-1071 82.5,-1092 192.5,-1092 192.5,-1071 82.5,-1071"/>
<text text-anchor="start" x="104.5" y="-1077.8" font-family="Times,serif" font-size="14.00">str_value</text>
<polygon fill="none" stroke="black" points="36.5,-1050 36.5,-1071 82.5,-1071 82.5,-1050 36.5,-1050"/>
<text text-anchor="start" x="57" y="-1056.8" font-family="Times,serif" font-size="14.00"> </text>
<polygon fill="none" stroke="black" points="82.5,-1050 82.5,-1071 192.5,-1071 192.5,-1050 82.5,-1050"/>
<text text-anchor="start" x="105" y="-1056.8" font-family="Times,serif" font-size="14.00">int_value</text>
<polygon fill="none" stroke="black" points="36.5,-1029 36.5,-1050 82.5,-1050 82.5,-1029 36.5,-1029"/>
<text text-anchor="start" x="57" y="-1035.8" font-family="Times,serif" font-size="14.00"> </text>
<polygon fill="none" stroke="black" points="82.5,-1029 82.5,-1050 192.5,-1050 192.5,-1029 82.5,-1029"/>
<text text-anchor="start" x="99" y="-1035.8" font-family="Times,serif" font-size="14.00">float_value</text>
<polygon fill="none" stroke="black" points="36.5,-1008 36.5,-1029 82.5,-1029 82.5,-1008 36.5,-1008"/>
<text text-anchor="start" x="57" y="-1014.8" font-family="Times,serif" font-size="14.00"> </text>
<polygon fill="none" stroke="black" points="82.5,-1008 82.5,-1029 192.5,-1029 192.5,-1008 82.5,-1008"/>
<text text-anchor="start" x="99.5" y="-1014.8" font-family="Times,serif" font-size="14.00">bool_value</text>
</g>
<!-- segments -->
<g id="node12" class="node">
<title>segments</title>
<polygon fill="none" stroke="black" points="292,-1134 292,-1155 391,-1155 391,-1134 292,-1134"/>
<text text-anchor="start" x="303" y="-1141.8" font-family="Times,serif" font-weight="bold" font-size="14.00">segments</text>
<polygon fill="none" stroke="black" points="292,-1113 292,-1134 316,-1134 316,-1113 292,-1113"/>
<text text-anchor="start" x="295" y="-1119.8" font-family="Times,serif" font-size="14.00">🔑</text>
<polygon fill="none" stroke="black" points="316,-1113 316,-1134 391,-1134 391,-1113 316,-1113"/>
<text text-anchor="start" x="346.5" y="-1119.8" font-family="Times,serif" font-size="14.00">id</text>
<polygon fill="none" stroke="black" points="292,-1092 292,-1113 316,-1113 316,-1092 292,-1092"/>
<text text-anchor="start" x="301.5" y="-1098.8" font-family="Times,serif" font-size="14.00"> </text>
<polygon fill="none" stroke="black" points="316,-1092 316,-1113 391,-1113 391,-1092 316,-1092"/>
<text text-anchor="start" x="337.5" y="-1098.8" font-family="Times,serif" font-size="14.00">type</text>
<polygon fill="none" stroke="black" points="292,-1071 292,-1092 316,-1092 316,-1071 292,-1071"/>
<text text-anchor="start" x="301.5" y="-1077.8" font-family="Times,serif" font-size="14.00"> </text>
<polygon fill="none" stroke="black" points="316,-1071 316,-1092 391,-1092 391,-1071 316,-1071"/>
<text text-anchor="start" x="333" y="-1077.8" font-family="Times,serif" font-size="14.00">scope</text>
<polygon fill="none" stroke="black" points="292,-1050 292,-1071 316,-1071 316,-1050 292,-1050"/>
<text text-anchor="start" x="301.5" y="-1056.8" font-family="Times,serif" font-size="14.00"> </text>
<polygon fill="none" stroke="black" points="316,-1050 316,-1071 391,-1071 391,-1050 316,-1050"/>
<text text-anchor="start" x="319" y="-1056.8" font-family="Times,serif" font-size="14.00">collection</text>
</g>
<!-- segment_metadata&#45;&gt;segments -->
<g id="edge3" class="edge">
<title>segment_metadata:e&#45;&gt;segments:w</title>
<path fill="none" stroke="black" d="M193.5,-1124C233.28,-1124 245.67,-1124 280.96,-1124"/>
<polygon fill="black" stroke="black" points="281,-1127.5 291,-1124 281,-1120.5 281,-1127.5"/>
</g>
</g>
</svg>
